<mxfile host="app.diagrams.net" modified="2021-12-16T21:12:44.248Z" agent="5.0 (Windows NT 10.0; Win64; x64) AppleWebKit/537.36 (KHTML, like Gecko) Chrome/96.0.4664.110 Safari/537.36" etag="p-rKccs9KrlOT26IQ9xV" version="15.9.6" type="github">
  <diagram id="C5RBs43oDa-KdzZeNtuy" name="Page-1">
    <mxGraphModel dx="870" dy="1795" grid="1" gridSize="10" guides="1" tooltips="1" connect="1" arrows="1" fold="1" page="1" pageScale="1" pageWidth="827" pageHeight="1169" math="0" shadow="0">
      <root>
        <mxCell id="WIyWlLk6GJQsqaUBKTNV-0" />
        <mxCell id="WIyWlLk6GJQsqaUBKTNV-1" parent="WIyWlLk6GJQsqaUBKTNV-0" />
        <mxCell id="L5e1cLYehbOBK374T9Pf-0" style="edgeStyle=orthogonalEdgeStyle;rounded=0;orthogonalLoop=1;jettySize=auto;html=1;exitX=0.5;exitY=1;exitDx=0;exitDy=0;entryX=0.5;entryY=0;entryDx=0;entryDy=0;sketch=1;strokeWidth=1;shadow=1;fillColor=default;shape=flexArrow;" edge="1" parent="WIyWlLk6GJQsqaUBKTNV-1" source="L5e1cLYehbOBK374T9Pf-7" target="L5e1cLYehbOBK374T9Pf-3">
          <mxGeometry relative="1" as="geometry">
            <mxPoint x="5.439999999999998" y="250" as="sourcePoint" />
          </mxGeometry>
        </mxCell>
        <mxCell id="L5e1cLYehbOBK374T9Pf-1" value="Yes" style="edgeStyle=orthogonalEdgeStyle;rounded=0;orthogonalLoop=1;jettySize=auto;html=1;exitX=1;exitY=0.5;exitDx=0;exitDy=0;entryX=0;entryY=0.5;entryDx=0;entryDy=0;sketch=1;strokeWidth=1;shadow=1;fillColor=default;shape=flexArrow;" edge="1" parent="WIyWlLk6GJQsqaUBKTNV-1" source="L5e1cLYehbOBK374T9Pf-3" target="L5e1cLYehbOBK374T9Pf-10">
          <mxGeometry relative="1" as="geometry" />
        </mxCell>
        <mxCell id="L5e1cLYehbOBK374T9Pf-2" value="No" style="edgeStyle=orthogonalEdgeStyle;rounded=0;orthogonalLoop=1;jettySize=auto;html=1;exitX=0.5;exitY=1;exitDx=0;exitDy=0;entryX=0.5;entryY=0;entryDx=0;entryDy=0;sketch=1;strokeWidth=1;shadow=1;fillColor=default;shape=flexArrow;" edge="1" parent="WIyWlLk6GJQsqaUBKTNV-1" source="L5e1cLYehbOBK374T9Pf-3" target="L5e1cLYehbOBK374T9Pf-12">
          <mxGeometry relative="1" as="geometry">
            <mxPoint x="80" y="500" as="targetPoint" />
          </mxGeometry>
        </mxCell>
        <mxCell id="L5e1cLYehbOBK374T9Pf-3" value="User enters &#39;stop&#39;" style="rhombus;whiteSpace=wrap;html=1;shadow=0;fontFamily=Helvetica;fontSize=12;align=center;strokeWidth=2;spacing=6;spacingTop=-4;fillColor=#dae8fc;strokeColor=#6c8ebf;sketch=1;fillStyle=solid;" vertex="1" parent="WIyWlLk6GJQsqaUBKTNV-1">
          <mxGeometry x="20" y="300" width="120" height="120" as="geometry" />
        </mxCell>
        <mxCell id="L5e1cLYehbOBK374T9Pf-4" value="Go to Start Screen" style="rounded=1;whiteSpace=wrap;html=1;fontSize=12;glass=0;strokeWidth=2;shadow=0;fillColor=#f8cecc;strokeColor=#b85450;spacing=6;spacingTop=-4;sketch=1;fillStyle=solid;" vertex="1" parent="WIyWlLk6GJQsqaUBKTNV-1">
          <mxGeometry x="460" y="330" width="120" height="60" as="geometry" />
        </mxCell>
        <mxCell id="L5e1cLYehbOBK374T9Pf-5" style="edgeStyle=orthogonalEdgeStyle;rounded=0;orthogonalLoop=1;jettySize=auto;html=1;exitX=0.5;exitY=1;exitDx=0;exitDy=0;entryX=0.5;entryY=0;entryDx=0;entryDy=0;sketch=1;strokeWidth=1;shadow=1;fillColor=default;shape=flexArrow;" edge="1" parent="WIyWlLk6GJQsqaUBKTNV-1" source="L5e1cLYehbOBK374T9Pf-6" target="L5e1cLYehbOBK374T9Pf-7">
          <mxGeometry relative="1" as="geometry" />
        </mxCell>
        <mxCell id="L5e1cLYehbOBK374T9Pf-6" value="User starts program and must enter an action at the prompt." style="rounded=1;whiteSpace=wrap;html=1;fontSize=12;glass=0;strokeWidth=2;shadow=0;fillColor=#d5e8d4;strokeColor=#82b366;spacing=6;spacingTop=-4;sketch=1;fillStyle=solid;" vertex="1" parent="WIyWlLk6GJQsqaUBKTNV-1">
          <mxGeometry x="10" width="140" height="80" as="geometry" />
        </mxCell>
        <mxCell id="L5e1cLYehbOBK374T9Pf-7" value="User is presented with instructions &lt;br&gt;and must enter command." style="rounded=0;whiteSpace=wrap;html=1;fillColor=#fff2cc;strokeColor=#d6b656;shadow=0;strokeWidth=2;spacing=6;spacingTop=-4;sketch=1;fillStyle=solid;" vertex="1" parent="WIyWlLk6GJQsqaUBKTNV-1">
          <mxGeometry x="20" y="150" width="120" height="60" as="geometry" />
        </mxCell>
        <mxCell id="L5e1cLYehbOBK374T9Pf-8" value="Go to Start Screen" style="rounded=1;whiteSpace=wrap;html=1;fontSize=12;glass=0;strokeWidth=2;shadow=0;fillColor=#f8cecc;strokeColor=#b85450;spacing=6;spacingTop=-4;sketch=1;fillStyle=solid;" vertex="1" parent="WIyWlLk6GJQsqaUBKTNV-1">
          <mxGeometry x="20.000000000000057" y="780" width="120" height="60" as="geometry" />
        </mxCell>
        <mxCell id="L5e1cLYehbOBK374T9Pf-9" style="edgeStyle=orthogonalEdgeStyle;rounded=0;orthogonalLoop=1;jettySize=auto;html=1;exitX=1;exitY=0.5;exitDx=0;exitDy=0;entryX=0;entryY=0.5;entryDx=0;entryDy=0;sketch=1;strokeWidth=1;shadow=1;fillColor=default;shape=flexArrow;" edge="1" parent="WIyWlLk6GJQsqaUBKTNV-1" source="L5e1cLYehbOBK374T9Pf-10" target="L5e1cLYehbOBK374T9Pf-4">
          <mxGeometry relative="1" as="geometry" />
        </mxCell>
        <mxCell id="L5e1cLYehbOBK374T9Pf-10" value="Cancelling message displays" style="rounded=0;whiteSpace=wrap;html=1;fillColor=#fff2cc;strokeColor=#d6b656;shadow=0;strokeWidth=2;spacing=6;spacingTop=-4;sketch=1;fillStyle=solid;" vertex="1" parent="WIyWlLk6GJQsqaUBKTNV-1">
          <mxGeometry x="245.44" y="330" width="120" height="60" as="geometry" />
        </mxCell>
        <mxCell id="L5e1cLYehbOBK374T9Pf-11" style="edgeStyle=orthogonalEdgeStyle;shape=flexArrow;rounded=0;sketch=1;orthogonalLoop=1;jettySize=auto;html=1;exitX=0.5;exitY=1;exitDx=0;exitDy=0;entryX=0.5;entryY=0;entryDx=0;entryDy=0;shadow=1;labelBackgroundColor=default;fontFamily=Helvetica;fontSize=11;fontColor=default;endArrow=classic;strokeColor=default;strokeWidth=1;fillColor=default;" edge="1" parent="WIyWlLk6GJQsqaUBKTNV-1" source="L5e1cLYehbOBK374T9Pf-12" target="L5e1cLYehbOBK374T9Pf-14">
          <mxGeometry relative="1" as="geometry" />
        </mxCell>
        <mxCell id="L5e1cLYehbOBK374T9Pf-12" value="Generation completes" style="rounded=0;whiteSpace=wrap;html=1;fillColor=#fff2cc;strokeColor=#d6b656;shadow=0;strokeWidth=2;spacing=6;spacingTop=-4;sketch=1;fillStyle=solid;" vertex="1" parent="WIyWlLk6GJQsqaUBKTNV-1">
          <mxGeometry x="20" y="500" width="120" height="60" as="geometry" />
        </mxCell>
        <mxCell id="L5e1cLYehbOBK374T9Pf-13" style="edgeStyle=orthogonalEdgeStyle;shape=flexArrow;rounded=0;sketch=1;orthogonalLoop=1;jettySize=auto;html=1;exitX=0.5;exitY=1;exitDx=0;exitDy=0;entryX=0.5;entryY=0;entryDx=0;entryDy=0;shadow=1;labelBackgroundColor=default;fontFamily=Helvetica;fontSize=11;fontColor=default;endArrow=classic;strokeColor=default;strokeWidth=1;fillColor=default;" edge="1" parent="WIyWlLk6GJQsqaUBKTNV-1" source="L5e1cLYehbOBK374T9Pf-14" target="L5e1cLYehbOBK374T9Pf-8">
          <mxGeometry relative="1" as="geometry" />
        </mxCell>
        <mxCell id="L5e1cLYehbOBK374T9Pf-14" value="Complete message displays" style="rounded=0;whiteSpace=wrap;html=1;fillColor=#fff2cc;strokeColor=#d6b656;shadow=0;strokeWidth=2;spacing=6;spacingTop=-4;sketch=1;fillStyle=solid;" vertex="1" parent="WIyWlLk6GJQsqaUBKTNV-1">
          <mxGeometry x="20" y="640" width="120" height="60" as="geometry" />
        </mxCell>
      </root>
    </mxGraphModel>
  </diagram>
</mxfile>
